<svg id="svg" version="1.1" xmlns="http://www.w3.org/2000/svg" width="400" height="400"
    viewBox="0, 0, 400,400">
    <g id="svgg">
        <path id="path0"
            d="M206.400 87.268 C 186.355 88.907,169.127 93.053,158.800 98.723 C 157.810 99.267,156.190 100.158,155.200 100.703 C 139.447 109.380,128.006 125.467,124.408 144.000 C 117.277 180.735,130.261 202.542,166.400 214.526 C 167.390 214.854,169.370 215.568,170.800 216.111 C 172.230 216.655,174.750 217.507,176.400 218.005 C 178.050 218.503,180.390 219.231,181.600 219.622 C 182.810 220.013,185.690 220.903,188.000 221.600 C 214.605 229.625,225.256 238.678,223.212 251.527 C 221.646 261.368,214.801 265.890,199.203 267.387 C 191.121 268.163,177.677 266.879,175.820 265.153 C 175.611 264.959,175.139 264.800,174.771 264.800 C 173.706 264.800,168.278 261.066,166.883 259.375 C 163.345 255.082,161.946 249.071,162.964 242.537 C 163.314 240.290,163.600 238.258,163.600 238.023 C 163.600 237.722,155.441 237.625,136.116 237.697 L 108.633 237.800 108.333 239.200 C 102.164 268.034,108.022 289.818,125.000 301.177 C 132.527 306.213,143.240 309.796,156.600 311.745 C 166.382 313.172,170.007 313.384,184.800 313.392 C 199.596 313.400,202.415 313.236,212.600 311.779 C 256.308 305.524,277.448 283.975,279.959 243.113 C 281.282 221.590,274.953 207.414,258.910 195.968 C 252.774 191.590,243.393 187.579,231.800 184.377 C 231.140 184.195,229.250 183.659,227.600 183.187 C 223.109 181.901,221.937 181.579,220.400 181.213 C 188.674 173.649,176.939 164.854,179.165 150.309 C 180.281 143.021,184.672 138.148,192.600 135.399 C 203.095 131.759,219.961 131.947,227.818 135.791 C 234.122 138.876,237.600 144.949,237.600 152.873 C 237.600 155.889,237.456 156.788,236.296 161.000 C 235.675 163.255,234.287 165.962,232.656 168.099 C 231.889 169.105,231.367 170.034,231.497 170.164 C 231.627 170.294,243.729 170.400,258.390 170.400 L 285.046 170.400 286.323 168.588 C 287.025 167.592,287.600 166.675,287.600 166.550 C 287.600 166.425,287.935 165.846,288.343 165.262 C 295.517 155.016,296.312 128.749,289.817 116.528 C 280.460 98.921,264.262 90.424,233.923 87.211 C 229.416 86.733,212.511 86.769,206.400 87.268 "
            stroke="none" fill="#fbfbfb" fill-rule="evenodd" />
        <path id="path1"
            d="M30.400 0.291 C 29.630 0.382,28.829 0.624,28.620 0.829 C 28.411 1.033,27.837 1.200,27.344 1.200 C 26.851 1.200,26.336 1.380,26.200 1.600 C 26.064 1.820,25.513 2.000,24.976 2.000 C 24.439 2.000,24.000 2.180,24.000 2.400 C 24.000 2.620,23.640 2.800,23.200 2.800 C 22.760 2.800,22.400 2.980,22.400 3.200 C 22.400 3.420,22.040 3.600,21.600 3.600 C 21.160 3.600,20.800 3.780,20.800 4.000 C 20.800 4.220,20.440 4.400,20.000 4.400 C 19.560 4.400,19.200 4.580,19.200 4.800 C 19.200 5.020,18.912 5.200,18.560 5.200 C 18.209 5.200,17.417 5.740,16.800 6.400 C 16.183 7.060,15.476 7.600,15.229 7.600 C 14.787 7.600,12.695 9.339,11.038 11.083 C 8.133 14.142,7.600 14.780,7.600 15.205 C 7.600 15.466,7.060 16.183,6.400 16.800 C 5.740 17.417,5.200 18.209,5.200 18.560 C 5.200 18.912,5.020 19.200,4.800 19.200 C 4.580 19.200,4.400 19.560,4.400 20.000 C 4.400 20.440,4.220 20.800,4.000 20.800 C 3.780 20.800,3.600 21.160,3.600 21.600 C 3.600 22.040,3.420 22.400,3.200 22.400 C 2.980 22.400,2.800 22.760,2.800 23.200 C 2.800 23.640,2.620 24.000,2.400 24.000 C 2.180 24.000,2.000 24.439,2.000 24.976 C 2.000 25.513,1.820 26.064,1.600 26.200 C 1.380 26.336,1.200 26.851,1.200 27.344 C 1.200 27.837,0.975 28.465,0.700 28.740 C -0.036 29.476,-0.036 370.524,0.700 371.260 C 0.975 371.535,1.200 372.163,1.200 372.656 C 1.200 373.149,1.380 373.664,1.600 373.800 C 1.820 373.936,2.000 374.487,2.000 375.024 C 2.000 375.561,2.180 376.000,2.400 376.000 C 2.620 376.000,2.800 376.360,2.800 376.800 C 2.800 377.240,2.980 377.600,3.200 377.600 C 3.420 377.600,3.600 377.960,3.600 378.400 C 3.600 378.840,3.780 379.200,4.000 379.200 C 4.220 379.200,4.400 379.560,4.400 380.000 C 4.400 380.440,4.580 380.800,4.800 380.800 C 5.020 380.800,5.200 381.088,5.200 381.440 C 5.200 381.791,5.740 382.583,6.400 383.200 C 7.060 383.817,7.600 384.524,7.600 384.771 C 7.600 385.756,14.244 392.400,15.229 392.400 C 15.476 392.400,16.183 392.940,16.800 393.600 C 17.417 394.260,18.209 394.800,18.560 394.800 C 18.912 394.800,19.200 394.980,19.200 395.200 C 19.200 395.420,19.560 395.600,20.000 395.600 C 20.440 395.600,20.800 395.780,20.800 396.000 C 20.800 396.220,21.160 396.400,21.600 396.400 C 22.040 396.400,22.400 396.580,22.400 396.800 C 22.400 397.020,22.760 397.200,23.200 397.200 C 23.640 397.200,24.000 397.380,24.000 397.600 C 24.000 397.820,24.439 398.000,24.976 398.000 C 25.513 398.000,26.064 398.180,26.200 398.400 C 26.336 398.620,26.851 398.800,27.344 398.800 C 27.837 398.800,28.465 399.025,28.740 399.300 C 29.476 400.036,370.524 400.036,371.260 399.300 C 371.535 399.025,372.163 398.800,372.656 398.800 C 373.149 398.800,373.664 398.620,373.800 398.400 C 373.936 398.180,374.487 398.000,375.024 398.000 C 375.561 398.000,376.000 397.820,376.000 397.600 C 376.000 397.380,376.360 397.200,376.800 397.200 C 377.240 397.200,377.600 397.020,377.600 396.800 C 377.600 396.580,377.960 396.400,378.400 396.400 C 378.840 396.400,379.200 396.220,379.200 396.000 C 379.200 395.780,379.560 395.600,380.000 395.600 C 380.440 395.600,380.800 395.420,380.800 395.200 C 380.800 394.980,381.088 394.800,381.440 394.800 C 381.791 394.800,382.583 394.260,383.200 393.600 C 383.817 392.940,384.524 392.400,384.771 392.400 C 385.192 392.400,387.036 390.887,388.962 388.962 C 390.887 387.036,392.400 385.192,392.400 384.771 C 392.400 384.524,392.940 383.817,393.600 383.200 C 394.260 382.583,394.800 381.791,394.800 381.440 C 394.800 381.088,394.980 380.800,395.200 380.800 C 395.420 380.800,395.600 380.440,395.600 380.000 C 395.600 379.560,395.780 379.200,396.000 379.200 C 396.220 379.200,396.400 378.840,396.400 378.400 C 396.400 377.960,396.580 377.600,396.800 377.600 C 397.020 377.600,397.200 377.240,397.200 376.800 C 397.200 376.360,397.380 376.000,397.600 376.000 C 397.820 376.000,398.000 375.561,398.000 375.024 C 398.000 374.487,398.180 373.936,398.400 373.800 C 398.620 373.664,398.800 373.149,398.800 372.656 C 398.800 372.163,399.025 371.535,399.300 371.260 C 400.036 370.524,400.036 29.476,399.300 28.740 C 399.025 28.465,398.800 27.837,398.800 27.344 C 398.800 26.851,398.620 26.336,398.400 26.200 C 398.180 26.064,398.000 25.513,398.000 24.976 C 398.000 24.439,397.820 24.000,397.600 24.000 C 397.380 24.000,397.200 23.640,397.200 23.200 C 397.200 22.760,397.020 22.400,396.800 22.400 C 396.580 22.400,396.400 22.040,396.400 21.600 C 396.400 21.160,396.220 20.800,396.000 20.800 C 395.780 20.800,395.600 20.440,395.600 20.000 C 395.600 19.560,395.420 19.200,395.200 19.200 C 394.980 19.200,394.800 18.912,394.800 18.560 C 394.800 18.209,394.260 17.417,393.600 16.800 C 392.940 16.183,392.400 15.476,392.400 15.229 C 392.400 14.244,385.756 7.600,384.771 7.600 C 384.524 7.600,383.817 7.060,383.200 6.400 C 382.583 5.740,381.791 5.200,381.440 5.200 C 381.088 5.200,380.800 5.020,380.800 4.800 C 380.800 4.580,380.440 4.400,380.000 4.400 C 379.560 4.400,379.200 4.220,379.200 4.000 C 379.200 3.780,378.840 3.600,378.400 3.600 C 377.960 3.600,377.600 3.420,377.600 3.200 C 377.600 2.980,377.240 2.800,376.800 2.800 C 376.360 2.800,376.000 2.620,376.000 2.400 C 376.000 2.180,375.561 2.000,375.024 2.000 C 374.487 2.000,373.936 1.820,373.800 1.600 C 373.664 1.380,373.149 1.200,372.656 1.200 C 372.163 1.200,371.535 0.975,371.260 0.700 C 370.782 0.222,34.383 -0.182,30.400 0.291 M233.923 87.211 C 253.571 89.292,263.794 92.384,274.475 99.476 C 287.697 108.256,294.400 121.349,294.400 138.398 C 294.400 148.160,291.589 160.626,288.343 165.262 C 287.935 165.846,287.600 166.425,287.600 166.550 C 287.600 166.675,287.025 167.592,286.323 168.588 L 285.046 170.400 258.390 170.400 C 243.729 170.400,231.627 170.294,231.497 170.164 C 231.367 170.034,231.889 169.105,232.656 168.099 C 234.287 165.962,235.675 163.255,236.296 161.000 C 237.456 156.788,237.600 155.889,237.600 152.873 C 237.600 139.424,228.854 132.827,211.000 132.811 C 191.657 132.794,180.945 138.682,179.165 150.309 C 176.939 164.854,188.674 173.649,220.400 181.213 C 221.937 181.579,223.109 181.901,227.600 183.187 C 229.250 183.659,231.140 184.195,231.800 184.377 C 243.393 187.579,252.774 191.590,258.910 195.968 C 274.953 207.414,281.282 221.590,279.959 243.113 C 277.448 283.975,256.308 305.524,212.600 311.779 C 202.415 313.236,199.596 313.400,184.800 313.392 C 170.007 313.384,166.382 313.172,156.600 311.745 C 143.240 309.796,132.527 306.213,125.000 301.177 C 108.022 289.818,102.164 268.034,108.333 239.200 L 108.633 237.800 136.116 237.697 C 155.441 237.625,163.600 237.722,163.600 238.023 C 163.600 238.258,163.314 240.290,162.964 242.537 C 161.946 249.071,163.345 255.082,166.883 259.375 C 168.278 261.066,173.706 264.800,174.771 264.800 C 175.139 264.800,175.611 264.959,175.820 265.153 C 177.677 266.879,191.121 268.163,199.203 267.387 C 214.801 265.890,221.646 261.368,223.212 251.527 C 225.256 238.678,214.605 229.625,188.000 221.600 C 185.690 220.903,182.810 220.013,181.600 219.622 C 180.390 219.231,178.050 218.503,176.400 218.005 C 174.750 217.507,172.230 216.655,170.800 216.111 C 169.370 215.568,167.390 214.854,166.400 214.526 C 130.261 202.542,117.277 180.735,124.408 144.000 C 128.006 125.467,139.447 109.380,155.200 100.703 C 156.190 100.158,157.810 99.267,158.800 98.723 C 167.329 94.041,183.633 89.622,198.200 88.045 C 209.477 86.824,226.516 86.426,233.923 87.211 "
            stroke="none" fill="#44bcbc" fill-rule="evenodd" />
    </g>
</svg>
